<svg version="1.1" id="Layer_1" xmlns="http://www.w3.org/2000/svg" xmlns:xlink="http://www.w3.org/1999/xlink" x="0px" y="0px"
	 width="100%" viewBox="0 0 736 736" enable-background="new 0 0 736 736" xml:space="preserve">
<path fill="#000000" opacity="1.000000" stroke="none" 
	d="
M272.999756,369.386780 
	C257.197510,369.387085 241.895233,369.387085 226.814056,369.387085 
	C225.589142,366.820526 226.989914,365.289886 227.749283,363.764954 
	C241.479919,336.191223 255.285751,308.654938 269.050415,281.098114 
	C277.309326,264.563751 285.647400,248.066833 293.676514,231.421188 
	C295.748932,227.124680 298.252930,225.431976 303.178314,225.499664 
	C324.839844,225.797318 346.509125,225.806305 368.172791,225.611435 
	C407.277527,225.259705 440.841034,238.854858 468.926208,265.778473 
	C492.972443,288.830200 507.485168,317.019928 511.311127,350.201141 
	C517.360596,402.666443 500.214722,446.478271 459.802094,480.376434 
	C433.487335,502.449249 402.531616,512.951355 367.964691,512.519104 
	C352.307953,512.323242 336.641876,512.639709 320.983032,512.903748 
	C290.658630,513.415039 260.339661,511.747131 230.015121,512.740662 
	C228.709396,512.783447 227.341721,512.773926 225.589661,511.356018 
	C248.906937,464.645050 272.290344,417.801605 296.458313,369.386444 
	C287.886047,369.386444 280.692871,369.386444 272.999756,369.386780 
M366.705078,375.053375 
	C356.097595,396.304565 345.490082,417.555725 334.983826,438.604065 
	C336.386017,440.098358 337.619781,439.750061 338.731476,439.753418 
	C349.730194,439.786835 360.736969,440.055664 371.726379,439.736694 
	C411.374786,438.585785 444.850159,403.374115 439.370361,359.211609 
	C435.608063,328.890472 411.781586,304.723969 381.548523,299.336517 
	C367.685577,296.866180 353.608826,298.866669 339.653717,298.149078 
	C335.113678,297.915619 332.763092,299.726837 330.822510,303.684235 
	C320.994019,323.727264 310.905945,343.642914 300.951172,363.624329 
	C300.322418,364.886353 299.184784,366.091095 300.104858,368.748108 
	C322.759888,368.748108 345.737518,368.748108 368.646881,368.748108 
	C368.843323,371.545898 367.608276,372.842438 366.705078,375.053375 
z"/>
</svg>